<svg xmlns="http://www.w3.org/2000/svg" width="20" height="18" viewBox="0 0 20 18"><defs><style>.a{fill:#7159c1;}</style></defs><path class="a" d="M10,2.25c-5.523,0-10,3.741-10,8.357a7.519,7.519,0,0,0,2.227,5.251A10.28,10.28,0,0,1,.086,19.708a.326.326,0,0,0-.059.35.306.306,0,0,0,.285.193A8.793,8.793,0,0,0,5.8,18.185a11.62,11.62,0,0,0,4.2.779c5.523,0,10-3.741,10-8.357S15.523,2.25,10,2.25ZM5,11.893a1.286,1.286,0,1,1,1.25-1.286A1.267,1.267,0,0,1,5,11.893Zm5,0a1.286,1.286,0,1,1,1.25-1.286A1.267,1.267,0,0,1,10,11.893Zm5,0a1.286,1.286,0,1,1,1.25-1.286A1.267,1.267,0,0,1,15,11.893Z" transform="translate(0 -2.25)"/></svg>